<?xml version="1.0" encoding="UTF-8"?>
<svg id="base" xmlns="http://www.w3.org/2000/svg" viewBox="0 0 1077.83 255.37">
  <defs>
    <style>
      .cls-1 {
        fill: #006d77;
      }
    </style>
  </defs>
  <path class="cls-1" d="M229.69,23.73c-2.8,4.1-5.92,9.02-9.38,14.75-3.45,5.73-7.13,12.14-11.04,19.24-3.32,5.92-6.59,12.22-9.81,18.9-3.22,6.67-6.3,13.28-9.23,19.82s-5.63,12.83-8.11,18.85c-2.48,6.02-4.62,11.33-6.45,15.92-1.82,4.59-3.26,8.27-4.3,11.04-1.04,2.77-1.56,4.18-1.56,4.25-.65,1.63-1.82,2.44-3.52,2.44-.85,0-1.6-.28-2.25-.83-.65-.55-1.07-1.25-1.27-2.1,0-.06-.31-1.45-.93-4.15-.62-2.7-1.45-6.31-2.49-10.84-1.04-4.52-2.23-9.73-3.56-15.62-1.33-5.89-2.73-12.04-4.2-18.46-1.46-6.41-2.95-12.91-4.44-19.48-1.5-6.58-2.9-12.83-4.2-18.75-4.36,12.3-8.74,23.19-13.13,32.67s-8.9,17.71-13.53,24.71c-4.62,7-9.39,12.88-14.31,17.63-4.92,4.75-10.06,8.58-15.43,11.47-5.37,2.9-11,4.96-16.89,6.2-5.89,1.24-12.13,1.86-18.7,1.86-3.39,0-7-.38-10.84-1.12-3.84-.75-7.65-1.9-11.43-3.47-3.78-1.56-7.39-3.52-10.84-5.86-3.45-2.34-6.51-5.13-9.18-8.35-2.67-3.22-4.79-6.87-6.35-10.94-1.56-4.07-2.34-8.61-2.34-13.62,0-5.27,1.11-10.11,3.32-14.5,2.21-4.39,5.21-8.17,8.98-11.33,3.77-3.16,8.15-5.62,13.13-7.37s10.24-2.64,15.77-2.64c4.04,0,7.67,.34,10.89,1.03s6.07,1.55,8.54,2.59c2.47,1.04,4.59,2.18,6.35,3.42,1.76,1.24,3.22,2.38,4.39,3.42,1.17,1.04,2.02,1.94,2.54,2.69,.52,.75,.81,1.12,.88,1.12,.39,.72,.59,1.4,.59,2.05,0,.91-.34,1.76-1.03,2.54s-1.58,1.17-2.69,1.17c-1.3,0-2.34-.55-3.12-1.66-.07-.06-.59-.67-1.56-1.81-.98-1.14-2.57-2.39-4.79-3.76-2.21-1.37-5.06-2.6-8.54-3.71-3.48-1.11-7.73-1.66-12.74-1.66-4.56,0-8.87,.7-12.94,2.1-4.07,1.4-7.62,3.37-10.64,5.91s-5.44,5.55-7.23,9.03c-1.79,3.48-2.69,7.31-2.69,11.47s.68,7.85,2.05,11.23c1.37,3.39,3.19,6.41,5.47,9.08,2.28,2.67,4.92,4.98,7.91,6.93,2.99,1.95,6.12,3.56,9.38,4.83,3.25,1.27,6.53,2.21,9.81,2.83,3.29,.62,6.4,.93,9.33,.93,4.95,0,9.78-.37,14.5-1.12,4.72-.75,9.38-2.16,13.96-4.25,4.59-2.08,9.1-4.95,13.53-8.59,4.43-3.65,8.82-8.4,13.18-14.26,4.36-5.86,8.67-12.92,12.94-21.19,4.26-8.27,8.54-18.03,12.84-29.3,1.3-3.38,2.57-7.03,3.81-10.94,1.24-3.91,2.51-7.84,3.81-11.82-1.11-5.73-1.9-10.61-2.39-14.65-.49-4.04-.73-7.39-.73-10.06,0-2.86,.23-5.14,.68-6.84,.45-1.69,1.04-2.98,1.76-3.86,.72-.88,1.5-1.43,2.34-1.66,.85-.23,1.66-.34,2.44-.34,.65,0,1.38,.13,2.2,.39,.81,.26,1.56,.83,2.25,1.71s1.25,2.17,1.71,3.86c.45,1.69,.68,3.97,.68,6.84,0,3.12-.29,6.74-.88,10.84s-1.46,8.63-2.64,13.57c.85,3.97,1.82,8.4,2.93,13.28,1.11,4.88,2.25,9.95,3.42,15.19,1.17,5.24,2.38,10.6,3.61,16.06,1.24,5.47,2.44,10.81,3.61,16.02,1.17,5.21,2.29,10.19,3.37,14.94,1.07,4.75,2.07,9.05,2.98,12.89,1.76-4.43,3.91-9.78,6.45-16.06,2.54-6.28,5.37-12.95,8.5-20.02,3.12-7.06,6.43-14.26,9.91-21.58,3.48-7.32,7.05-14.24,10.69-20.75,5.14-9.24,9.86-17.17,14.16-23.78,4.3-6.61,8.01-12.06,11.13-16.36s5.58-7.47,7.37-9.52c1.79-2.05,2.75-3.17,2.88-3.37,.72-.72,1.59-1.07,2.64-1.07,1.11,0,2,.38,2.69,1.12,.68,.75,1.03,1.61,1.03,2.59,0,.46-.1,.91-.29,1.37,0,.07-.38,1.03-1.12,2.88-.75,1.86-1.69,4.39-2.83,7.62-1.14,3.22-2.39,7-3.76,11.33-1.37,4.33-2.7,8.98-4,13.96-1.3,4.98-2.46,10.19-3.47,15.62-1.01,5.44-1.74,10.86-2.2,16.26-.2,2.48-.36,5.06-.49,7.76-.13,2.7-.2,5.42-.2,8.15,0,4.3,.2,8.63,.59,12.99,.39,4.36,1.04,8.56,1.95,12.6,.91,4.04,2.15,7.83,3.71,11.38,1.56,3.55,3.48,6.66,5.76,9.33,2.28,2.67,5,4.82,8.15,6.45,3.16,1.63,6.82,2.51,10.99,2.64,1.04,.07,1.87,.5,2.49,1.32,.62,.81,.93,1.68,.93,2.59s-.36,1.72-1.07,2.44c-.72,.72-1.56,1.07-2.54,1.07-1.04,0-2.08-.1-3.12-.29-4.69-.65-8.82-2-12.4-4.05-3.58-2.05-6.67-4.59-9.28-7.62-2.6-3.03-4.77-6.48-6.49-10.35-1.73-3.87-3.11-8.02-4.15-12.45-1.04-4.43-1.77-9.03-2.2-13.82-.42-4.79-.63-9.62-.63-14.5,0-5.79,.29-11.59,.88-17.38,.59-5.79,1.37-11.44,2.34-16.94,.98-5.5,2.11-10.82,3.42-15.97,1.3-5.14,2.64-9.93,4-14.36Z"/>
  <path class="cls-1" d="M278.32,138.77c1.37,1.89,3.12,3.4,5.27,4.54,2.15,1.14,4.79,1.71,7.91,1.71s6.09-.76,8.69-2.29c2.6-1.53,4.98-3.53,7.13-6.01,2.15-2.47,4.07-5.24,5.76-8.3,1.69-3.06,3.22-6.12,4.59-9.18,.33-.72,.78-1.25,1.37-1.61,.59-.36,1.24-.54,1.95-.54,1.11,0,2,.39,2.69,1.17s1.03,1.63,1.03,2.54c0,.33-.03,.6-.1,.83-.06,.23-.16,.47-.29,.73-4.49,9.9-9.39,17.35-14.7,22.36s-11.31,7.58-18.02,7.71c-4.3,0-8.01-.83-11.13-2.49s-5.7-3.81-7.71-6.45c-2.02-2.64-3.52-5.62-4.49-8.94s-1.46-6.64-1.46-9.96,.41-6.38,1.22-9.18c.81-2.8,1.99-5.24,3.52-7.32,1.53-2.08,3.35-3.71,5.47-4.88,2.11-1.17,4.44-1.76,6.98-1.76,1.5,0,2.98,.31,4.44,.93,1.46,.62,2.78,1.5,3.95,2.64,1.17,1.14,2.12,2.52,2.83,4.15,.72,1.63,1.07,3.48,1.07,5.57,0,2.67-.46,5.18-1.37,7.52s-2.16,4.53-3.76,6.54c-1.6,2.02-3.5,3.87-5.71,5.57-2.21,1.69-4.59,3.16-7.13,4.39Zm-2.93-6.35c2.02-.85,3.86-1.92,5.52-3.22,1.66-1.3,3.08-2.73,4.25-4.3s2.08-3.21,2.73-4.93c.65-1.72,.98-3.47,.98-5.22,0-1.95-.49-3.43-1.46-4.44-.98-1.01-2.12-1.51-3.42-1.51-1.76,0-3.26,.49-4.49,1.46-1.24,.98-2.25,2.25-3.03,3.81s-1.35,3.3-1.71,5.22c-.36,1.92-.54,3.83-.54,5.71,0,1.17,.11,2.41,.34,3.71,.23,1.3,.5,2.54,.83,3.71Z"/>
  <path class="cls-1" d="M353.03,159.08c12.24-15.95,20.74-29.2,25.49-39.75,.33-.72,.76-1.25,1.32-1.61,.55-.36,1.19-.54,1.9-.54,1.11,0,2.02,.38,2.73,1.12,.72,.75,1.07,1.61,1.07,2.59,0,.46-.1,.91-.29,1.37-2.87,6.51-6.93,13.77-12.21,21.78s-11.95,17.06-20.02,27.15c0,4.1,.03,8.2,.1,12.3,.06,4.1,.1,8.59,.1,13.48s-.11,9.72-.34,14.5c-.23,4.79-.63,9.34-1.22,13.67-.59,4.33-1.38,8.33-2.39,12.01-1.01,3.68-2.31,6.87-3.91,9.57-1.6,2.7-3.52,4.82-5.76,6.35-2.25,1.53-4.9,2.29-7.96,2.29-4.36,0-7.71-1.66-10.06-4.98s-3.52-8.04-3.52-14.16c0-3.26,.31-6.79,.93-10.6,.62-3.81,1.51-7.73,2.69-11.77,1.17-4.04,2.59-8.12,4.25-12.26,1.66-4.13,3.5-8.15,5.52-12.06,2.02-3.91,4.21-7.65,6.59-11.23,2.38-3.58,4.9-6.84,7.57-9.77,.06-4.56,.11-9.08,.15-13.57,.03-4.49,.11-8.63,.24-12.4-1.95,2.47-4.28,4.43-6.98,5.86-2.7,1.43-5.39,2.15-8.06,2.15-2.28,0-4.35-.44-6.2-1.32s-3.43-2.12-4.74-3.71c-1.3-1.59-2.31-3.47-3.03-5.62-.72-2.15-1.07-4.49-1.07-7.03,0-5.08,.86-9.55,2.59-13.43,1.72-3.87,3.92-7.11,6.59-9.72,2.67-2.6,5.62-4.56,8.84-5.86,3.22-1.3,6.33-1.95,9.33-1.95,2.02,0,3.87,.26,5.57,.78,1.69,.52,3.14,1.11,4.35,1.76,1.2,.65,2.13,1.27,2.78,1.86,.65,.59,1.01,.91,1.07,.98,.72,.78,1.07,1.66,1.07,2.64s-.36,1.84-1.07,2.59c-.72,.75-1.56,1.12-2.54,1.12-.91,0-1.79-.36-2.64-1.07-.26-.2-.6-.47-1.03-.83-.42-.36-.98-.73-1.66-1.12s-1.5-.72-2.44-.98c-.94-.26-2.07-.39-3.37-.39-1.95,0-4.1,.44-6.45,1.32s-4.53,2.26-6.54,4.15c-2.02,1.89-3.71,4.31-5.08,7.28-1.37,2.96-2.05,6.53-2.05,10.69,0,3.12,.68,5.65,2.05,7.57,1.37,1.92,3.48,2.88,6.35,2.88,1.37,0,2.82-.39,4.35-1.17,1.53-.78,3.01-1.99,4.44-3.61,1.43-1.63,2.69-3.68,3.76-6.15,1.07-2.47,1.84-5.4,2.29-8.79,.13-.91,.55-1.68,1.27-2.29,.72-.62,1.56-.93,2.54-.93,1.11,0,1.97,.39,2.59,1.17,.62,.78,.93,1.66,.93,2.64,0,.07-.03,1.06-.1,2.98-.07,1.92-.13,4.48-.2,7.67-.07,3.19-.15,6.88-.24,11.08s-.18,8.64-.24,13.33Zm-7.42,21.39c-3.06,4.23-5.83,8.84-8.3,13.82-2.47,4.98-4.59,10.01-6.35,15.09s-3.11,10.01-4.05,14.79c-.94,4.79-1.42,9.07-1.42,12.84,0,2.41,.21,4.33,.63,5.76,.42,1.43,.94,2.54,1.56,3.32,.62,.78,1.3,1.3,2.05,1.56,.75,.26,1.45,.39,2.1,.39,2.02,0,3.78-.81,5.27-2.44,1.5-1.63,2.77-3.79,3.81-6.49,1.04-2.7,1.89-5.81,2.54-9.33,.65-3.52,1.14-7.15,1.46-10.89,.33-3.74,.55-7.47,.68-11.18,.13-3.71,.2-7.13,.2-10.25v-8.4c0-2.8-.07-5.66-.2-8.59Z"/>
  <path class="cls-1" d="M410.94,138.57c-2.28,3.71-4.93,6.64-7.96,8.79s-6.07,3.22-9.13,3.22c-2.47,0-4.69-.46-6.64-1.37s-3.65-2.2-5.08-3.86c-1.43-1.66-2.52-3.66-3.27-6.01-.75-2.34-1.12-4.98-1.12-7.91,0-4.56,.44-8.59,1.32-12.11s1.84-6.46,2.88-8.84c1.04-2.38,2.47-4.8,4.3-7.28,.33-.39,.73-.68,1.22-.88s.99-.29,1.51-.29c1.04,0,1.9,.38,2.59,1.12,.68,.75,1.03,1.61,1.03,2.59,0,.39-.08,.78-.24,1.17-.16,.39-.34,.78-.54,1.17-.33,.59-.85,1.48-1.56,2.69-.72,1.21-1.46,2.78-2.25,4.74s-1.46,4.25-2.05,6.88-.88,5.65-.88,9.03c0,3.84,.76,6.75,2.29,8.74,1.53,1.99,3.69,2.98,6.49,2.98,1.17,0,2.52-.37,4.05-1.12,1.53-.75,3.03-1.9,4.49-3.47s2.75-3.55,3.86-5.96c1.11-2.41,1.82-5.24,2.15-8.5l1.46-16.8c.13-.98,.55-1.79,1.27-2.44,.72-.65,1.56-.98,2.54-.98,1.11,0,1.99,.41,2.64,1.22,.65,.81,.98,1.74,.98,2.78l-1.27,16.21c-.13,1.37-.08,3.16,.15,5.37,.23,2.21,.7,4.39,1.42,6.54,.72,2.15,1.79,3.99,3.22,5.52,1.43,1.53,3.32,2.29,5.66,2.29,1.69,0,3.35-.44,4.98-1.32,1.63-.88,3.19-2.03,4.69-3.47,1.5-1.43,2.88-3.04,4.15-4.83,1.27-1.79,2.44-3.6,3.52-5.42,1.07-1.82,2-3.56,2.78-5.22s1.43-3.08,1.95-4.25c.33-.72,.78-1.27,1.37-1.66s1.24-.59,1.95-.59c1.17,0,2.08,.39,2.73,1.17,.65,.78,.98,1.63,.98,2.54,0,.52-.1,1.01-.29,1.46-.26,.52-.77,1.61-1.51,3.27-.75,1.66-1.73,3.55-2.93,5.66-1.21,2.12-2.65,4.35-4.35,6.69-1.69,2.34-3.58,4.51-5.66,6.49-2.08,1.99-4.35,3.61-6.79,4.88s-5.06,1.9-7.86,1.9c-3.84,0-7.03-1.09-9.57-3.27s-4.43-5.29-5.66-9.33Z"/>
  <path class="cls-1" d="M471.09,140.82c.98-1.95,2.23-4.38,3.76-7.28,1.53-2.9,3.12-5.81,4.79-8.74s3.29-5.7,4.88-8.3c1.59-2.6,2.95-4.59,4.05-5.96,1.89-2.28,3.84-3.91,5.86-4.88,2.02-.98,3.87-1.46,5.57-1.46s3.14,.36,4.35,1.07c1.2,.72,2.2,1.68,2.98,2.88,.78,1.21,1.37,2.6,1.76,4.2,.39,1.6,.59,3.3,.59,5.13,0,1.04-.05,2.41-.15,4.1-.1,1.69-.2,3.52-.29,5.47s-.2,3.97-.29,6.05c-.1,2.08-.18,4.04-.24,5.86,.98-1.95,2.08-4.12,3.32-6.49,1.24-2.38,2.49-4.74,3.76-7.08s2.49-4.54,3.66-6.59,2.25-3.73,3.22-5.03c2.8-3.84,5.42-6.41,7.86-7.71,2.44-1.3,4.61-1.95,6.49-1.95,2.21,0,4.04,.41,5.47,1.22,1.43,.81,2.55,1.86,3.37,3.12,.81,1.27,1.38,2.69,1.71,4.25,.33,1.56,.49,3.06,.49,4.49,0,2.21-.16,4.53-.49,6.93-.33,2.41-.49,5.27-.49,8.59,0,1.37,.06,2.73,.2,4.1,.13,1.37,.41,2.57,.83,3.61,.42,1.04,1.09,1.89,2,2.54,.91,.65,2.15,.98,3.71,.98,1.69,0,3.35-.44,4.98-1.32,1.63-.88,3.19-2.03,4.69-3.47,1.5-1.43,2.91-3.06,4.25-4.88,1.33-1.82,2.55-3.65,3.66-5.47,1.11-1.82,2.08-3.56,2.93-5.22,.85-1.66,1.53-3.08,2.05-4.25,.33-.72,.78-1.27,1.37-1.66s1.24-.59,1.95-.59c1.11,0,2,.41,2.69,1.22,.68,.81,1.03,1.68,1.03,2.59,0,.46-.1,.91-.29,1.37-.26,.52-.78,1.61-1.56,3.27s-1.82,3.55-3.12,5.66c-1.3,2.12-2.82,4.35-4.54,6.69-1.73,2.34-3.63,4.51-5.71,6.49-2.08,1.99-4.33,3.61-6.74,4.88-2.41,1.27-4.95,1.9-7.62,1.9-2.87,0-5.19-.5-6.98-1.51-1.79-1.01-3.22-2.36-4.3-4.05-1.07-1.69-1.81-3.65-2.2-5.86-.39-2.21-.59-4.52-.59-6.93,0-3.19,.16-6.14,.49-8.84,.33-2.7,.49-4.8,.49-6.3,0-1.63-.15-2.86-.44-3.71-.29-.85-.65-1.45-1.07-1.81-.42-.36-.83-.55-1.22-.59-.39-.03-.68-.05-.88-.05-1.56,0-3.21,.86-4.93,2.59s-3.5,4.02-5.32,6.88c-1.82,2.87-3.7,6.12-5.62,9.77-1.92,3.65-3.86,7.36-5.81,11.13-1.11,2.08-2.04,3.81-2.78,5.18-.75,1.37-1.46,2.44-2.15,3.22s-1.35,1.33-2,1.66c-.65,.33-1.37,.49-2.15,.49-1.69,0-2.98-.59-3.86-1.76s-1.32-2.7-1.32-4.59c0-.98,.03-2.28,.1-3.91,.06-1.63,.13-3.42,.2-5.37,.06-1.95,.16-3.97,.29-6.05,.13-2.08,.23-4.08,.29-6.01,.06-1.92,.13-3.63,.2-5.13,.06-1.5,.1-2.64,.1-3.42,0-1.69-.29-2.91-.88-3.66-.59-.75-1.27-1.12-2.05-1.12-.72,0-1.51,.26-2.39,.78-.88,.52-1.9,1.53-3.08,3.03-.91,1.17-2.07,2.88-3.47,5.13-1.4,2.25-2.88,4.74-4.44,7.47s-3.11,5.53-4.64,8.4c-1.53,2.87-2.85,5.44-3.96,7.71-1.37,2.73-2.73,4.61-4.1,5.62s-2.7,1.51-4,1.51c-1.89,0-3.29-.57-4.2-1.71-.91-1.14-1.37-2.65-1.37-4.54,0-.2,.05-1.37,.15-3.52s.21-4.77,.34-7.86c.13-3.09,.28-6.4,.44-9.91,.16-3.52,.31-6.8,.44-9.86,.06-1.63,0-3.12-.2-4.49s-.46-2.18-.78-2.44c-.52,.13-1.55,1.33-3.08,3.61-1.53,2.28-3.47,6.25-5.81,11.91-.33,.72-.81,1.27-1.46,1.66-.65,.39-1.33,.59-2.05,.59-1.11,0-1.99-.37-2.64-1.12-.65-.75-.98-1.61-.98-2.59,0-.46,.1-.94,.29-1.46,2.93-6.97,5.73-12.09,8.4-15.38,2.67-3.29,5.27-4.93,7.81-4.93,1.5,0,2.75,.34,3.76,1.03,1.01,.68,1.81,1.56,2.39,2.64s1.01,2.29,1.27,3.66c.26,1.37,.39,2.7,.39,4,0,5.79-.15,11.1-.44,15.92-.29,4.82-.6,9.67-.93,14.55Z"/>
  <path class="cls-1" d="M592.28,72.85c0,2.48-.86,4.57-2.59,6.3-1.73,1.73-3.83,2.59-6.3,2.59s-4.57-.86-6.3-2.59c-1.73-1.72-2.59-3.82-2.59-6.3,0-1.24,.23-2.39,.68-3.47,.46-1.07,1.09-2.02,1.9-2.83,.81-.81,1.76-1.45,2.83-1.9,1.07-.45,2.23-.68,3.47-.68s2.39,.23,3.47,.68c1.07,.46,2.02,1.09,2.83,1.9,.81,.81,1.45,1.76,1.9,2.83,.46,1.07,.68,2.23,.68,3.47Zm-15.82,57.23c0-9.38,.59-18.72,1.76-28.03,.13-.91,.54-1.71,1.22-2.39s1.58-1.03,2.69-1.03c.98,0,1.79,.38,2.44,1.12,.65,.75,.98,1.61,.98,2.59,0,.39-.08,1.56-.24,3.52-.16,1.95-.36,4.28-.59,6.98-.23,2.7-.42,5.57-.59,8.59-.16,3.03-.24,5.81-.24,8.35,0,3.45,.34,6.23,1.03,8.35,.68,2.12,1.56,3.76,2.64,4.93s2.21,1.95,3.42,2.34c1.2,.39,2.36,.59,3.47,.59,1.82,0,3.71-.65,5.66-1.95,1.95-1.3,3.96-3.12,6.01-5.47s4.12-5.16,6.2-8.45c2.08-3.29,4.13-6.95,6.15-10.99,.33-.65,.78-1.16,1.37-1.51,.59-.36,1.24-.54,1.95-.54,1.04,0,1.9,.39,2.59,1.17s1.03,1.63,1.03,2.54c0,.65-.13,1.21-.39,1.66-.78,1.5-1.76,3.32-2.93,5.47s-2.51,4.36-4,6.64c-1.5,2.28-3.14,4.54-4.93,6.79-1.79,2.25-3.7,4.26-5.71,6.05-2.02,1.79-4.13,3.24-6.35,4.35-2.21,1.11-4.46,1.66-6.74,1.66-2.93,0-5.5-.62-7.71-1.86-2.21-1.24-4.09-2.9-5.62-4.98-1.53-2.08-2.67-4.54-3.42-7.37-.75-2.83-1.12-5.88-1.12-9.13Zm10.35-57.23c0-.91-.34-1.71-1.03-2.39s-1.48-1.03-2.39-1.03-1.69,.34-2.34,1.03c-.65,.68-.98,1.48-.98,2.39s.33,1.69,.98,2.34c.65,.65,1.43,.98,2.34,.98s1.71-.33,2.39-.98c.68-.65,1.03-1.43,1.03-2.34Z"/>
  <path class="cls-1" d="M791.8,46.97c-.2,.91-.62,1.63-1.27,2.15-.65,.52-1.37,.78-2.15,.78-1.17,0-2.12-.37-2.83-1.12-.72-.75-1.07-1.61-1.07-2.59s.1-1.94,.29-2.88c.2-.94,.29-1.87,.29-2.78,0-4.75-1.46-9.02-4.39-12.79-2.93-3.77-7.08-6.95-12.45-9.52-5.37-2.57-11.9-4.54-19.58-5.91-7.68-1.37-16.24-2.05-25.68-2.05-7.23,0-14.5,.47-21.83,1.42-7.32,.94-14.36,2.31-21.09,4.1-6.74,1.79-13.04,4.04-18.9,6.74-5.86,2.7-10.95,5.83-15.28,9.38-4.33,3.55-7.73,7.49-10.21,11.82-2.47,4.33-3.71,9.07-3.71,14.21,0,3.97,.86,7.47,2.59,10.5,1.72,3.03,4.08,5.66,7.08,7.91,2.99,2.25,6.53,4.17,10.6,5.76,4.07,1.6,8.48,2.93,13.23,4,4.75,1.07,9.7,1.95,14.84,2.64,5.14,.68,10.32,1.25,15.53,1.71l15.04,1.27c7.49,.65,14.19,1.33,20.12,2.05,5.92,.72,11.13,1.63,15.62,2.73,7.49,1.89,13.02,4.59,16.6,8.11,3.58,3.52,5.37,8.2,5.37,14.06s-1.56,10.64-4.69,14.94-7.39,7.91-12.79,10.84c-5.4,2.93-11.72,5.14-18.95,6.64-7.23,1.5-14.97,2.25-23.24,2.25-8.98,0-16.88-.6-23.68-1.81-6.8-1.21-12.5-2.54-17.09-4s-8.09-2.82-10.5-4.05c-2.41-1.24-3.71-1.92-3.91-2.05-1.17-.65-1.76-1.69-1.76-3.12,0-1.11,.39-2,1.17-2.69s1.63-1.03,2.54-1.03c.72,0,1.37,.2,1.95,.59,.06,0,1.19,.57,3.37,1.71,2.18,1.14,5.44,2.39,9.77,3.76,4.33,1.37,9.68,2.6,16.06,3.71,6.38,1.11,13.8,1.66,22.27,1.66s15.82-.68,22.27-2.05,11.87-3.27,16.26-5.71,7.71-5.31,9.96-8.59c2.25-3.29,3.37-6.85,3.37-10.69,0-2.28-.41-4.25-1.22-5.91-.81-1.66-1.94-3.09-3.37-4.3-1.43-1.2-3.14-2.23-5.13-3.08-1.99-.85-4.15-1.56-6.49-2.15-2.47-.65-5.13-1.2-7.96-1.66-2.83-.45-5.75-.85-8.74-1.17-3-.33-6.01-.62-9.03-.88-3.03-.26-6.01-.52-8.94-.78l-15.04-1.27c-11.85-.98-22.18-2.49-31.01-4.54-8.82-2.05-16.16-4.69-22.02-7.91s-10.25-7.08-13.18-11.57-4.39-9.73-4.39-15.72,1.38-11.73,4.15-16.85c2.77-5.11,6.54-9.72,11.33-13.82s10.38-7.67,16.8-10.69c6.41-3.03,13.26-5.55,20.56-7.57,7.29-2.02,14.84-3.53,22.66-4.54,7.81-1.01,15.49-1.51,23.05-1.51,9.44,0,17.66,.57,24.66,1.71,7,1.14,12.99,2.6,17.97,4.39,4.98,1.79,9.07,3.83,12.26,6.1,3.19,2.28,5.76,4.53,7.71,6.74,4.62,5.4,6.93,11.56,6.93,18.46,0,2.28-.23,4.46-.68,6.54Z"/>
  <path class="cls-1" d="M814.94,138.57c-2.28,3.71-4.93,6.64-7.96,8.79s-6.07,3.22-9.13,3.22c-2.47,0-4.69-.46-6.64-1.37s-3.65-2.2-5.08-3.86c-1.43-1.66-2.52-3.66-3.27-6.01-.75-2.34-1.12-4.98-1.12-7.91,0-4.56,.44-8.59,1.32-12.11s1.84-6.46,2.88-8.84c1.04-2.38,2.47-4.8,4.3-7.28,.33-.39,.73-.68,1.22-.88s.99-.29,1.51-.29c1.04,0,1.9,.38,2.59,1.12,.68,.75,1.03,1.61,1.03,2.59,0,.39-.08,.78-.24,1.17-.16,.39-.34,.78-.54,1.17-.33,.59-.85,1.48-1.56,2.69-.72,1.21-1.46,2.78-2.25,4.74s-1.46,4.25-2.05,6.88-.88,5.65-.88,9.03c0,3.84,.76,6.75,2.29,8.74,1.53,1.99,3.69,2.98,6.49,2.98,1.17,0,2.52-.37,4.05-1.12,1.53-.75,3.03-1.9,4.49-3.47s2.75-3.55,3.86-5.96c1.11-2.41,1.82-5.24,2.15-8.5l1.46-16.8c.13-.98,.55-1.79,1.27-2.44,.72-.65,1.56-.98,2.54-.98,1.11,0,1.99,.41,2.64,1.22,.65,.81,.98,1.74,.98,2.78l-1.27,16.21c-.13,1.37-.08,3.16,.15,5.37,.23,2.21,.7,4.39,1.42,6.54,.72,2.15,1.79,3.99,3.22,5.52,1.43,1.53,3.32,2.29,5.66,2.29,1.69,0,3.35-.44,4.98-1.32,1.63-.88,3.19-2.03,4.69-3.47,1.5-1.43,2.88-3.04,4.15-4.83,1.27-1.79,2.44-3.6,3.52-5.42,1.07-1.82,2-3.56,2.78-5.22s1.43-3.08,1.95-4.25c.33-.72,.78-1.27,1.37-1.66s1.24-.59,1.95-.59c1.17,0,2.08,.39,2.73,1.17,.65,.78,.98,1.63,.98,2.54,0,.52-.1,1.01-.29,1.46-.26,.52-.77,1.61-1.51,3.27-.75,1.66-1.73,3.55-2.93,5.66-1.21,2.12-2.65,4.35-4.35,6.69-1.69,2.34-3.58,4.51-5.66,6.49-2.08,1.99-4.35,3.61-6.79,4.88s-5.06,1.9-7.86,1.9c-3.84,0-7.03-1.09-9.57-3.27s-4.43-5.29-5.66-9.33Z"/>
  <path class="cls-1" d="M887.89,159.08c12.24-15.95,20.74-29.2,25.49-39.75,.33-.72,.76-1.25,1.32-1.61,.55-.36,1.19-.54,1.9-.54,1.11,0,2.02,.38,2.73,1.12,.72,.75,1.07,1.61,1.07,2.59,0,.46-.1,.91-.29,1.37-2.87,6.51-6.93,13.77-12.21,21.78s-11.95,17.06-20.02,27.15c0,4.1,.03,8.2,.1,12.3,.06,4.1,.1,8.59,.1,13.48s-.11,9.72-.34,14.5c-.23,4.79-.63,9.34-1.22,13.67-.59,4.33-1.38,8.33-2.39,12.01-1.01,3.68-2.31,6.87-3.91,9.57-1.6,2.7-3.52,4.82-5.76,6.35-2.25,1.53-4.9,2.29-7.96,2.29-4.36,0-7.71-1.66-10.06-4.98s-3.52-8.04-3.52-14.16c0-3.26,.31-6.79,.93-10.6,.62-3.81,1.51-7.73,2.69-11.77,1.17-4.04,2.59-8.12,4.25-12.26,1.66-4.13,3.5-8.15,5.52-12.06,2.02-3.91,4.21-7.65,6.59-11.23,2.38-3.58,4.9-6.84,7.57-9.77,.06-4.56,.11-9.08,.15-13.57,.03-4.49,.11-8.63,.24-12.4-1.95,2.47-4.28,4.43-6.98,5.86-2.7,1.43-5.39,2.15-8.06,2.15-2.28,0-4.35-.44-6.2-1.32s-3.43-2.12-4.74-3.71c-1.3-1.59-2.31-3.47-3.03-5.62-.72-2.15-1.07-4.49-1.07-7.03,0-5.08,.86-9.55,2.59-13.43,1.72-3.87,3.92-7.11,6.59-9.72,2.67-2.6,5.62-4.56,8.84-5.86,3.22-1.3,6.33-1.95,9.33-1.95,2.02,0,3.87,.26,5.57,.78,1.69,.52,3.14,1.11,4.35,1.76,1.2,.65,2.13,1.27,2.78,1.86,.65,.59,1.01,.91,1.07,.98,.72,.78,1.07,1.66,1.07,2.64s-.36,1.84-1.07,2.59c-.72,.75-1.56,1.12-2.54,1.12-.91,0-1.79-.36-2.64-1.07-.26-.2-.6-.47-1.03-.83-.42-.36-.98-.73-1.66-1.12s-1.5-.72-2.44-.98c-.94-.26-2.07-.39-3.37-.39-1.95,0-4.1,.44-6.45,1.32s-4.53,2.26-6.54,4.15c-2.02,1.89-3.71,4.31-5.08,7.28-1.37,2.96-2.05,6.53-2.05,10.69,0,3.12,.68,5.65,2.05,7.57,1.37,1.92,3.48,2.88,6.35,2.88,1.37,0,2.82-.39,4.35-1.17,1.53-.78,3.01-1.99,4.44-3.61,1.43-1.63,2.69-3.68,3.76-6.15,1.07-2.47,1.84-5.4,2.29-8.79,.13-.91,.55-1.68,1.27-2.29,.72-.62,1.56-.93,2.54-.93,1.11,0,1.97,.39,2.59,1.17,.62,.78,.93,1.66,.93,2.64,0,.07-.03,1.06-.1,2.98-.07,1.92-.13,4.48-.2,7.67-.07,3.19-.15,6.88-.24,11.08s-.18,8.64-.24,13.33Zm-7.42,21.39c-3.06,4.23-5.83,8.84-8.3,13.82-2.47,4.98-4.59,10.01-6.35,15.09s-3.11,10.01-4.05,14.79c-.94,4.79-1.42,9.07-1.42,12.84,0,2.41,.21,4.33,.63,5.76,.42,1.43,.94,2.54,1.56,3.32,.62,.78,1.3,1.3,2.05,1.56,.75,.26,1.45,.39,2.1,.39,2.02,0,3.78-.81,5.27-2.44,1.5-1.63,2.77-3.79,3.81-6.49,1.04-2.7,1.89-5.81,2.54-9.33,.65-3.52,1.14-7.15,1.46-10.89,.33-3.74,.55-7.47,.68-11.18,.13-3.71,.2-7.13,.2-10.25v-8.4c0-2.8-.07-5.66-.2-8.59Z"/>
  <path class="cls-1" d="M929.3,72.85c0,2.48-.86,4.57-2.59,6.3-1.73,1.73-3.83,2.59-6.3,2.59s-4.57-.86-6.3-2.59c-1.73-1.72-2.59-3.82-2.59-6.3,0-1.24,.23-2.39,.68-3.47,.46-1.07,1.09-2.02,1.9-2.83,.81-.81,1.76-1.45,2.83-1.9,1.07-.45,2.23-.68,3.47-.68s2.39,.23,3.47,.68c1.07,.46,2.02,1.09,2.83,1.9,.81,.81,1.45,1.76,1.9,2.83,.46,1.07,.68,2.23,.68,3.47Zm-15.82,57.23c0-9.38,.59-18.72,1.76-28.03,.13-.91,.54-1.71,1.22-2.39s1.58-1.03,2.69-1.03c.98,0,1.79,.38,2.44,1.12,.65,.75,.98,1.61,.98,2.59,0,.39-.08,1.56-.24,3.52-.16,1.95-.36,4.28-.59,6.98-.23,2.7-.42,5.57-.59,8.59-.16,3.03-.24,5.81-.24,8.35,0,3.45,.34,6.23,1.03,8.35,.68,2.12,1.56,3.76,2.64,4.93s2.21,1.95,3.42,2.34c1.2,.39,2.36,.59,3.47,.59,1.82,0,3.71-.65,5.66-1.95,1.95-1.3,3.96-3.12,6.01-5.47s4.12-5.16,6.2-8.45c2.08-3.29,4.13-6.95,6.15-10.99,.33-.65,.78-1.16,1.37-1.51,.59-.36,1.24-.54,1.95-.54,1.04,0,1.9,.39,2.59,1.17s1.03,1.63,1.03,2.54c0,.65-.13,1.21-.39,1.66-.78,1.5-1.76,3.32-2.93,5.47s-2.51,4.36-4,6.64c-1.5,2.28-3.14,4.54-4.93,6.79-1.79,2.25-3.7,4.26-5.71,6.05-2.02,1.79-4.13,3.24-6.35,4.35-2.21,1.11-4.46,1.66-6.74,1.66-2.93,0-5.5-.62-7.71-1.86-2.21-1.24-4.09-2.9-5.62-4.98-1.53-2.08-2.67-4.54-3.42-7.37-.75-2.83-1.12-5.88-1.12-9.13Zm10.35-57.23c0-.91-.34-1.71-1.03-2.39s-1.48-1.03-2.39-1.03-1.69,.34-2.34,1.03c-.65,.68-.98,1.48-.98,2.39s.33,1.69,.98,2.34c.65,.65,1.43,.98,2.34,.98s1.71-.33,2.39-.98c.68-.65,1.03-1.43,1.03-2.34Z"/>
  <path class="cls-1" d="M1034.47,51.76c0,1.04-.36,1.87-1.07,2.49-.72,.62-1.6,.93-2.64,.93h-49.51v1.07c0,3.97-.29,8.2-.88,12.7s-1.38,8.97-2.39,13.43c-1.01,4.46-2.15,8.81-3.42,13.04-1.27,4.23-2.57,8.14-3.91,11.72-1.33,3.58-2.65,6.69-3.96,9.33-1.3,2.64-2.47,4.61-3.52,5.91,.85,3,1.86,5.78,3.03,8.35,1.17,2.57,2.49,4.82,3.96,6.74,1.46,1.92,3.04,3.43,4.74,4.54,1.69,1.11,3.52,1.66,5.47,1.66,2.28,0,4.54-.96,6.79-2.88,2.25-1.92,4.33-4.2,6.25-6.84,1.92-2.64,3.61-5.31,5.08-8.01,1.46-2.7,2.52-4.87,3.17-6.49,.65-1.56,1.79-2.34,3.42-2.34,1.11,0,2,.39,2.69,1.17s1.03,1.63,1.03,2.54c0,.46-.1,.91-.29,1.37-.2,.46-.67,1.5-1.42,3.12-.75,1.63-1.73,3.52-2.93,5.66-1.21,2.15-2.6,4.41-4.2,6.79-1.6,2.38-3.39,4.54-5.37,6.49-1.99,1.95-4.12,3.58-6.4,4.88-2.28,1.3-4.69,1.95-7.23,1.95-4.49,0-8.53-1.46-12.11-4.39-3.58-2.93-6.62-7.03-9.13-12.3-2.51-5.27-4.41-11.52-5.71-18.75-1.3-7.23-1.95-15.14-1.95-23.73,0-2.15,.03-4.67,.1-7.57,.06-2.9,.2-5.96,.39-9.18s.49-6.54,.88-9.96,.91-6.75,1.56-10.01h-35.06c-1.04,0-1.92-.31-2.64-.93-.72-.62-1.07-1.45-1.07-2.49s.36-1.87,1.07-2.49c.72-.62,1.6-.93,2.64-.93h36.72c.65-2.34,1.42-4.49,2.29-6.45s1.89-3.65,3.03-5.08c1.14-1.43,2.41-2.55,3.81-3.37,1.4-.81,2.95-1.22,4.64-1.22s3.04,.41,4.25,1.22c1.2,.81,2.23,1.94,3.08,3.37,.85,1.43,1.51,3.12,2,5.08s.86,4.1,1.12,6.45h49.9c1.04,0,1.92,.31,2.64,.93,.72,.62,1.07,1.45,1.07,2.49Zm-73.54,60.84c1.95-4.3,3.73-8.94,5.32-13.92,1.59-4.98,2.96-10.01,4.1-15.09,1.14-5.08,2.02-10.06,2.64-14.94,.62-4.88,.93-9.38,.93-13.48h-11.52c-.91,4.04-1.64,9.03-2.2,14.99-.55,5.96-.83,13.2-.83,21.73,0,4.75,.13,8.74,.39,11.96,.26,3.22,.65,6.14,1.17,8.74Zm9.08-73.05c-.59,0-1.43,.63-2.54,1.9-1.11,1.27-2.21,3.56-3.32,6.88h9.38c-.33-2.73-.8-4.88-1.42-6.45-.62-1.56-1.32-2.34-2.1-2.34Z"/>
  <path class="cls-1" d="M1077.54,122.27c-.26,.52-.8,1.61-1.61,3.27-.81,1.66-1.86,3.56-3.12,5.71s-2.75,4.39-4.44,6.74c-1.69,2.34-3.58,4.49-5.66,6.45-2.08,1.95-4.33,3.56-6.74,4.83-2.41,1.27-4.95,1.9-7.62,1.9-3.78,0-6.95-1.21-9.52-3.61-2.57-2.41-4.44-5.44-5.62-9.08-2.21,3.71-4.85,6.66-7.91,8.84-3.06,2.18-6.12,3.27-9.18,3.27-2.41,0-4.59-.44-6.54-1.32s-3.61-2.12-4.98-3.71c-1.37-1.59-2.43-3.47-3.17-5.62-.75-2.15-1.12-4.49-1.12-7.03,0-5.08,.86-9.55,2.59-13.43,1.72-3.87,3.92-7.11,6.59-9.72,2.67-2.6,5.62-4.56,8.84-5.86,3.22-1.3,6.33-1.95,9.33-1.95,2.02,0,3.87,.28,5.57,.83,1.69,.55,3.14,1.16,4.35,1.81,1.2,.65,2.13,1.25,2.78,1.81,.65,.55,1.01,.86,1.07,.93,.72,.85,1.07,1.73,1.07,2.64,0,.98-.36,1.84-1.07,2.59-.72,.75-1.56,1.12-2.54,1.12-1.04,0-1.92-.36-2.64-1.07-.13-.13-.42-.37-.88-.73-.46-.36-1.07-.73-1.86-1.12s-1.71-.73-2.78-1.03-2.29-.44-3.66-.44c-2.02,0-4.17,.46-6.45,1.37-2.28,.91-4.36,2.33-6.25,4.25-1.89,1.92-3.47,4.33-4.74,7.23-1.27,2.9-1.9,6.33-1.9,10.3,0,1.24,.13,2.49,.39,3.76,.26,1.27,.72,2.43,1.37,3.47,.65,1.04,1.53,1.89,2.64,2.54,1.11,.65,2.47,.98,4.1,.98,1.17,0,2.52-.39,4.05-1.17,1.53-.78,2.99-1.99,4.39-3.61,1.4-1.63,2.67-3.68,3.81-6.15,1.14-2.47,1.94-5.4,2.39-8.79,.13-.91,.55-1.68,1.27-2.29,.72-.62,1.56-.93,2.54-.93,.91,0,1.71,.36,2.39,1.07,.68,.72,1.06,1.53,1.12,2.44,.06,1.24,.2,2.98,.39,5.22s.63,4.48,1.32,6.69c.68,2.21,1.71,4.13,3.08,5.76,1.37,1.63,3.25,2.44,5.66,2.44,1.56,0,3.11-.42,4.64-1.27,1.53-.85,3.03-1.97,4.49-3.37,1.46-1.4,2.86-2.99,4.2-4.79,1.33-1.79,2.55-3.6,3.66-5.42,1.11-1.82,2.08-3.58,2.93-5.27,.85-1.69,1.56-3.16,2.15-4.39,.33-.72,.8-1.27,1.42-1.66,.62-.39,1.29-.59,2-.59,1.11,0,2,.41,2.69,1.22,.68,.81,1.03,1.68,1.03,2.59,0,.46-.1,.91-.29,1.37Z"/>
</svg>