<?xml version="1.0" standalone="no"?>
<!DOCTYPE svg PUBLIC "-//W3C//DTD SVG 20010904//EN"
 "http://www.w3.org/TR/2001/REC-SVG-20010904/DTD/svg10.dtd">
<svg version="1.0" xmlns="http://www.w3.org/2000/svg"
 width="492.000000pt" height="492.000000pt" viewBox="0 0 492.000000 492.000000"
 preserveAspectRatio="xMidYMid meet">
<metadata>
Created by potrace 1.14, written by Peter Selinger 2001-2017
</metadata>
<g transform="translate(0.000000,492.000000) scale(0.100000,-0.100000)"
fill="#000000" stroke="none">
<path d="M2269 4916 c-2 -2 -33 -6 -69 -10 -90 -8 -152 -16 -169 -22 -8 -3
-30 -7 -50 -10 -52 -8 -239 -60 -334 -93 -468 -164 -908 -503 -1185 -914 -199
-294 -339 -639 -388 -952 -4 -27 -9 -57 -10 -65 -22 -110 -26 -538 -6 -667 49
-312 126 -555 260 -813 24 -47 57 -104 73 -128 16 -24 29 -45 29 -47 0 -3 28
-44 62 -92 116 -163 243 -303 393 -432 81 -70 268 -211 279 -211 3 0 25 -13
49 -30 58 -39 262 -141 362 -180 154 -61 403 -129 535 -145 25 -3 68 -9 95
-13 28 -4 142 -7 255 -7 215 0 313 7 430 30 14 3 38 8 54 11 346 62 720 235
1026 473 112 87 319 294 402 402 246 318 396 646 472 1029 35 175 41 248 41
470 0 200 -10 336 -31 430 -3 14 -8 36 -11 50 -37 200 -124 444 -231 650 -45
86 -191 312 -234 362 -13 15 -36 44 -53 65 -66 84 -287 293 -395 374 -148 110
-226 158 -380 235 -192 95 -383 163 -559 199 -121 24 -124 25 -176 31 -27 3
-68 9 -90 13 -39 7 -439 13 -446 7z"/>
</g>
</svg>
